<?xml version="1.0" encoding="utf-8"?>
<!-- Generator: Adobe Illustrator 22.1.0, SVG Export Plug-In . SVG Version: 6.00 Build 0)  -->
<svg version="1.1" id="Layer_1" xmlns="http://www.w3.org/2000/svg" xmlns:xlink="http://www.w3.org/1999/xlink" x="0px" y="0px"
	 viewBox="0 0 1200 1200" style="enable-background:new 0 0 1200 1200;" xml:space="preserve">
<style type="text/css">
	.st0{fill:#CECECE;}
	.st1{fill:#3597D4;stroke:#231F20;stroke-width:0.25;stroke-miterlimit:10;}
	.st2{fill:#52A6DA;stroke:#231F20;stroke-width:0.25;stroke-miterlimit:10;}
	.st3{fill:#6FB5E0;stroke:#231F20;stroke-width:0.25;stroke-miterlimit:10;}
	.st4{fill:#8CC4E6;stroke:#231F20;stroke-width:0.25;stroke-miterlimit:10;}
	.st5{fill:#A8D2ED;stroke:#231F20;stroke-width:0.25;stroke-miterlimit:10;}
	.st6{fill:#C5E1F3;stroke:#231F20;stroke-width:0.25;stroke-miterlimit:10;}
	.st7{fill:#E2F0F9;stroke:#231F20;stroke-width:0.25;stroke-miterlimit:10;}
	.st8{fill:#FFFFFF;stroke:#231F20;stroke-width:0.25;stroke-miterlimit:10;}
	.st9{fill:#FFD93B;stroke:#231F20;stroke-width:0.25;stroke-miterlimit:10;}
	.st10{fill:#FFDE57;stroke:#231F20;stroke-width:0.25;stroke-miterlimit:10;}
	.st11{fill:#FFE473;stroke:#231F20;stroke-width:0.25;stroke-miterlimit:10;}
	.st12{fill:#FFE98F;stroke:#231F20;stroke-width:0.25;stroke-miterlimit:10;}
	.st13{fill:#FFEFAB;stroke:#231F20;stroke-width:0.25;stroke-miterlimit:10;}
	.st14{fill:#FFF4C7;stroke:#231F20;stroke-width:0.25;stroke-miterlimit:10;}
	.st15{fill:#FFFAE3;stroke:#231F20;stroke-width:0.25;stroke-miterlimit:10;}
	.st16{fill:#E1315B;stroke:#231F20;stroke-width:0.25;stroke-miterlimit:10;}
	.st17{fill:#E54E72;stroke:#231F20;stroke-width:0.25;stroke-miterlimit:10;}
	.st18{fill:#EA6C8A;stroke:#231F20;stroke-width:0.25;stroke-miterlimit:10;}
	.st19{fill:#EE89A1;stroke:#231F20;stroke-width:0.25;stroke-miterlimit:10;}
	.st20{fill:#F2A7B9;stroke:#231F20;stroke-width:0.25;stroke-miterlimit:10;}
	.st21{fill:#F6C4D0;stroke:#231F20;stroke-width:0.25;stroke-miterlimit:10;}
	.st22{fill:#FBE2E8;stroke:#231F20;stroke-width:0.25;stroke-miterlimit:10;}
	.st23{fill:#F47D4A;stroke:#231F20;stroke-width:0.25;stroke-miterlimit:10;}
	.st24{fill:#F69064;stroke:#231F20;stroke-width:0.25;stroke-miterlimit:10;}
	.st25{fill:#F7A27E;stroke:#231F20;stroke-width:0.25;stroke-miterlimit:10;}
	.st26{fill:#F9B598;stroke:#231F20;stroke-width:0.25;stroke-miterlimit:10;}
	.st27{fill:#FAC7B1;stroke:#231F20;stroke-width:0.25;stroke-miterlimit:10;}
	.st28{fill:#FCDACB;stroke:#231F20;stroke-width:0.25;stroke-miterlimit:10;}
	.st29{fill:#FDECE5;stroke:#231F20;stroke-width:0.25;stroke-miterlimit:10;}
	.st30{fill:#1BAA69;stroke:#231F20;stroke-width:0.25;stroke-miterlimit:10;}
	.st31{fill:#3CB67E;stroke:#231F20;stroke-width:0.25;stroke-miterlimit:10;}
	.st32{fill:#5CC294;stroke:#231F20;stroke-width:0.25;stroke-miterlimit:10;}
	.st33{fill:#7DCEA9;stroke:#231F20;stroke-width:0.25;stroke-miterlimit:10;}
	.st34{fill:#9DDBBF;stroke:#231F20;stroke-width:0.25;stroke-miterlimit:10;}
	.st35{fill:#BEE7D4;stroke:#231F20;stroke-width:0.25;stroke-miterlimit:10;}
	.st36{fill:#DEF3EA;stroke:#231F20;stroke-width:0.25;stroke-miterlimit:10;}
	.st37{fill:#3597D4;}
	.st38{fill:#FFD93B;}
	.st39{fill:#E1315B;}
	.st40{fill:#F47D4A;}
	.st41{fill:#1BAA69;}
	.st42{fill:#FFFFFF;}
	.st43{fill:#7DCEA9;}
	.st44{fill:#1A1A1A;}
	.st45{fill:#E2CDBD;}
	.st46{fill:#FBFDFC;}
	.st47{fill:#FCFEFD;}
	.st48{fill:#F5FAF7;}
	.st49{fill:#DDEDE6;}
	.st50{fill:#DBE6E1;}
	.st51{fill:#B7B7B7;}
	.st52{fill:#D1D3D2;}
	.st53{fill:#5AB28A;}
	.st54{fill:#CCCCCC;}
	.st55{fill:#EAEFED;}
	.st56{fill:#DFF6EB;}
	.st57{fill:#8D9692;}
	.st58{fill:#CCDDD5;}
	.st59{fill:#97A9A1;}
	.st60{fill:#D6D8D7;}
	.st61{fill:#D9EDE4;}
	.st62{fill:#EAE8E7;}
	.st63{fill:#86BBA3;}
	.st64{fill:#B6C6BF;}
	.st65{fill:#B2B2B2;}
	.st66{fill:#6A8176;}
	.st67{fill:#A9D5C1;}
	.st68{fill:#EDF9F3;}
	.st69{fill:#22D080;}
	.st70{fill:#B2D3C4;}
	.st71{fill:#878787;}
	.st72{fill:#D7D7D7;}
	.st73{fill:#9FDCC0;}
	.st74{fill:#3B3B3B;}
	.st75{fill:#AAC1B6;}
	.st76{fill:#FEFEFE;}
	.st77{fill:#1A1B1A;}
	.st78{fill:#1A1C1B;}
	.st79{fill:#1A3B2C;}
	.st80{fill:#1A8B58;}
	.st81{fill:#649D83;}
	.st82{fill:#C3F2DC;}
	.st83{fill:#1B1B1B;}
	.st84{fill:#49D897;}
	.st85{fill:#E1D0C3;}
	.st86{fill:#1C1C1B;}
	.st87{fill:#DD8686;}
	.st88{fill:#5F5F5F;}
	.st89{fill:#555555;}
	.st90{fill:#E8E8E8;}
	.st91{fill:#D0BBA1;}
	.st92{fill:#5B5B5B;}
	.st93{fill:#C4C4C4;}
	.st94{fill:#7A6A55;}
	.st95{fill:#D5D5D5;}
	.st96{fill:#949494;}
	.st97{fill:#CACACA;}
	.st98{fill:#B3B3B3;}
	.st99{fill:#AAAAAA;}
	.st100{fill:#CFCFCF;}
	.st101{fill:#AEAEAE;}
	.st102{fill:#545655;}
	.st103{fill:#DEDEDE;}
	.st104{fill:#C1A582;}
	.st105{fill:#CDCDCD;}
	.st106{fill:#676767;}
	.st107{fill:#B4B4B4;}
	.st108{fill:#4E4E4E;}
	.st109{fill:#A0A0A0;}
	.st110{fill:#A3A3A3;}
	.st111{fill:#6C6C6C;}
	.st112{fill:#5C5C5C;}
	.st113{fill:#767676;}
	.st114{fill:#C0C0C0;}
	.st115{fill:#ACACAC;}
	.st116{fill:#9D9D9D;}
	.st117{fill:#4D4D4D;}
	.st118{fill:#7B7B7B;}
	.st119{fill:#B1B1B1;}
	.st120{fill:#BDBDBD;}
	.st121{fill:#717171;}
	.st122{fill:#444444;}
	.st123{fill:#C8C8C8;}
	.st124{fill:#656565;}
	.st125{fill:#9F9F9F;}
	.st126{fill:#868686;}
	.st127{fill:#969696;}
	.st128{fill:#393939;}
	.st129{fill:#C2C2C2;}
	.st130{fill:#606060;}
	.st131{fill:#484848;}
	.st132{fill:#575757;}
	.st133{fill:#AFAFAF;}
	.st134{fill:#8F8F8F;}
	.st135{fill:#565656;}
	.st136{fill:#C9C9C9;}
	.st137{fill:#919191;}
	.st138{fill:#DBDBDB;}
	.st139{fill:#CBCBCB;}
	.st140{fill:#747474;}
	.st141{fill:#727272;}
	.st142{fill:#525252;}
	.st143{fill:#B8B8B8;}
	.st144{fill:#D0D0D0;}
	.st145{fill:#434343;}
	.st146{fill:#535353;}
	.st147{fill:#5D5D5D;}
	.st148{fill:#686868;}
	.st149{fill:#9A9A9A;}
	.st150{fill:#6A6A6A;}
	.st151{fill:#797979;}
	.st152{fill:#999999;}
	.st153{fill:#C3C3C3;}
	.st154{fill:#333333;}
	.st155{fill:#FFD93B;stroke:#FFD93B;stroke-miterlimit:10;}
	.st156{fill:#948067;}
	.st157{fill:#DBDAD9;}
	.st158{fill:#4B4339;}
	.st159{fill:#8F7C63;}
	.st160{fill:#433C33;}
	.st161{fill:#494137;}
	.st162{fill:#988369;}
	.st163{fill:#84725C;}
	.st164{fill:#DFDEDC;}
	.st165{fill:#413C35;}
	.st166{fill:#1D5B3F;}
	.st167{fill:#786855;}
	.st168{fill:#595959;}
	.st169{fill:#D1D0CF;}
	.st170{fill:#848484;}
	.st171{fill:#D8D1C8;}
	.st172{fill:#83725B;}
	.st173{fill:#49423B;}
	.st174{fill:#BAB4AB;}
	.st175{fill:#1D6644;}
	.st176{fill:#AEA79E;}
	.st177{fill:#5A4F42;}
	.st178{fill:#8C7962;}
	.st179{fill:#2D2925;}
	.st180{fill:#2F2F2F;}
	.st181{fill:#5F5344;}
	.st182{fill:#989898;}
	.st183{fill:#1C5B3E;}
	.st184{fill:#6B6B6B;}
	.st185{fill:#7A6A56;}
	.st186{fill:#756653;}
	.st187{fill:#85735D;}
	.st188{fill:#7F6F59;}
	.st189{fill:#404040;}
	.st190{fill:#4B453D;}
	.st191{fill:#675F55;}
	.st192{fill:#766857;}
	.st193{fill:#4E453B;}
	.st194{fill:#8D8D8D;}
	.st195{fill:#4D443A;}
	.st196{fill:#4A4238;}
	.st197{fill:#50473C;}
	.st198{fill:#6B5D4C;}
	.st199{fill:#95826A;}
	.st200{fill:#D7D4D1;}
	.st201{fill:#CEC9C3;}
	.st202{fill:#808080;}
	.st203{fill:#959595;}
	.st204{fill:#1D6141;}
	.st205{fill:#8D7A62;}
	.st206{fill:#787774;}
	.st207{fill:#736451;}
	.st208{fill:#626262;}
	.st209{fill:#1E8154;}
	.st210{fill:#907C63;}
	.st211{fill:#979797;}
	.st212{fill:#3A352E;}
	.st213{fill:#342F2A;}
	.st214{fill:#363636;}
	.st215{fill:#828282;}
	.st216{fill:#231F20;stroke:#FFD93B;stroke-width:0.25;stroke-miterlimit:10;}
	.st217{fill:#FDFFFE;}
	.st218{fill:#73E1AF;}
	.st219{fill:#7BE3B3;}
	.st220{fill:#CDF4E3;}
	.st221{fill:#82E5B8;}
	.st222{fill:#1D1C1C;}
	.st223{fill:#353534;}
	.st224{fill:#3C3A38;}
	.st225{fill:#594E41;}
	.st226{fill:#88765E;}
	.st227{fill:#50473B;}
	.st228{fill:#5F5345;}
	.st229{fill:#8D7A61;}
	.st230{fill:#84735C;}
	.st231{fill:#BAB3A9;}
	.st232{fill:#D9D0C5;}
	.st233{fill:#CDBDA8;}
	.st234{fill:#C6BAAC;}
	.st235{fill:#D6C5AF;}
	.st236{fill:#D0C6B9;}
	.st237{fill:#736759;}
	.st238{fill:#EBEAE8;}
	.st239{fill:#DE8787;}
	.st240{fill:#473333;}
	.st241{fill:#634343;}
	.st242{fill:#774E4E;}
	.st243{fill:none;stroke:#7DCEA9;stroke-width:8;stroke-miterlimit:10;}
	.st244{fill:#231F20;}
	.st245{fill:#FFFFFF;stroke:#1BAA69;stroke-width:60;stroke-miterlimit:10;}
	.st246{fill:none;stroke:#FFD93B;stroke-width:6;stroke-miterlimit:10;}
	.st247{fill:none;stroke:#1BAA69;stroke-width:17;stroke-miterlimit:10;}
	.st248{fill-rule:evenodd;clip-rule:evenodd;fill:#FCFDFC;stroke:#231F20;stroke-width:0.5;stroke-miterlimit:10;}
	.st249{fill-rule:evenodd;clip-rule:evenodd;fill:#2E2E2C;}
	.st250{fill-rule:evenodd;clip-rule:evenodd;fill:#F4F4F3;}
	.st251{fill-rule:evenodd;clip-rule:evenodd;fill:#282B2B;}
	.st252{fill-rule:evenodd;clip-rule:evenodd;fill:#242220;}
	.st253{fill-rule:evenodd;clip-rule:evenodd;fill:#2C2624;}
	.st254{fill-rule:evenodd;clip-rule:evenodd;fill:#313131;}
	.st255{fill-rule:evenodd;clip-rule:evenodd;fill:#FCFDFC;stroke:#231F20;stroke-width:0.2;stroke-miterlimit:10;}
	.st256{fill-rule:evenodd;clip-rule:evenodd;fill:#F0D2BC;stroke:#231F20;stroke-width:0.1;stroke-miterlimit:10;}
	.st257{fill-rule:evenodd;clip-rule:evenodd;fill:#60ABC5;}
	.st258{fill-rule:evenodd;clip-rule:evenodd;fill:#FCFDFC;}
	.st259{fill-rule:evenodd;clip-rule:evenodd;fill:#414241;}
	.st260{fill-rule:evenodd;clip-rule:evenodd;fill:#F48D8B;}
	.st261{fill-rule:evenodd;clip-rule:evenodd;fill:#EDCFB9;}
	.st262{fill-rule:evenodd;clip-rule:evenodd;fill:#5D5C57;}
	.st263{fill-rule:evenodd;clip-rule:evenodd;fill:#D39B9D;}
	.st264{fill-rule:evenodd;clip-rule:evenodd;fill:#9AEDBE;stroke:#404041;stroke-width:7;stroke-miterlimit:10;}
	.st265{fill-rule:evenodd;clip-rule:evenodd;fill:#EAD3C3;stroke:#404041;stroke-width:3;stroke-miterlimit:10;}
	.st266{fill:#1BA969;}
	.st267{fill-rule:evenodd;clip-rule:evenodd;fill:#1BAA69;stroke:#231F20;stroke-miterlimit:10;}
	.st268{fill-rule:evenodd;clip-rule:evenodd;fill:#1BAA69;stroke:#231F20;stroke-width:5;stroke-miterlimit:10;}
	.st269{fill:#E0315B;}
</style>
<path class="st245" d="M926,1120.4H329.1c-73.9,0-134.3-60.4-134.3-134.3V201.1c0-73.9,60.4-134.3,134.3-134.3h384.4l346.7,355.6
	V986C1060.3,1059.9,999.9,1120.4,926,1120.4z"/>
<path class="st245" d="M1066.5,450.7H806.6c-64.9,0-117.5-52.6-117.5-117.5V73.3"/>
<path class="st246" d="M400.1,711h-92c-6.6,0-12-5.4-12-12v-92c0-6.6,5.4-12,12-12h92c6.6,0,12,5.4,12,12v92
	C412.1,705.6,406.7,711,400.1,711z"/>
<path class="st246" d="M400.1,572h-92c-6.6,0-12-5.4-12-12v-92c0-6.6,5.4-12,12-12h92c6.6,0,12,5.4,12,12v92
	C412.1,566.6,406.7,572,400.1,572z"/>
<path class="st246" d="M400.1,862h-92c-6.6,0-12-5.4-12-12v-92c0-6.6,5.4-12,12-12h92c6.6,0,12,5.4,12,12v92
	C412.1,856.6,406.7,862,400.1,862z"/>
<path class="st246" d="M400.1,1005.5h-92c-6.6,0-12-5.4-12-12v-92c0-6.6,5.4-12,12-12h92c6.6,0,12,5.4,12,12v92
	C412.1,1000.1,406.7,1005.5,400.1,1005.5z"/>
<path class="st38" d="M898.8,531h-424c-6.6,0-12-5.4-12-12v-10c0-6.6,5.4-12,12-12h424c6.6,0,12,5.4,12,12v10
	C910.8,525.6,905.4,531,898.8,531z"/>
<path class="st38" d="M898.8,670h-424c-6.6,0-12-5.4-12-12v-10c0-6.6,5.4-12,12-12h424c6.6,0,12,5.4,12,12v10
	C910.8,664.6,905.4,670,898.8,670z"/>
<path class="st38" d="M898.8,821h-424c-6.6,0-12-5.4-12-12v-10c0-6.6,5.4-12,12-12h424c6.6,0,12,5.4,12,12v10
	C910.8,815.6,905.4,821,898.8,821z"/>
<path class="st38" d="M898.8,964.5h-424c-6.6,0-12-5.4-12-12v-10c0-6.6,5.4-12,12-12h424c6.6,0,12,5.4,12,12v10
	C910.8,959.1,905.4,964.5,898.8,964.5z"/>
<polyline class="st247" points="403.1,440.4 337.1,539.5 305.1,504.4 "/>
<polyline class="st247" points="412.1,588.9 346.1,688 314.1,652.9 "/>
<polyline class="st247" points="412.1,737.4 346.1,836.5 314.1,801.4 "/>
<polyline class="st247" points="403.1,880.9 337.1,980 305.1,944.9 "/>
</svg>
