<?xml version="1.0" encoding="utf-8"?>
<!-- Generator: Adobe Illustrator 22.1.0, SVG Export Plug-In . SVG Version: 6.00 Build 0)  -->
<svg version="1.1" id="Layer_1" xmlns="http://www.w3.org/2000/svg" xmlns:xlink="http://www.w3.org/1999/xlink" x="0px" y="0px"
	 viewBox="0 0 1200 1200" style="enable-background:new 0 0 1200 1200;" xml:space="preserve">
<style type="text/css">
	.st0{fill:#CECECE;}
	.st1{fill:#3597D4;stroke:#231F20;stroke-width:0.25;stroke-miterlimit:10;}
	.st2{fill:#52A6DA;stroke:#231F20;stroke-width:0.25;stroke-miterlimit:10;}
	.st3{fill:#6FB5E0;stroke:#231F20;stroke-width:0.25;stroke-miterlimit:10;}
	.st4{fill:#8CC4E6;stroke:#231F20;stroke-width:0.25;stroke-miterlimit:10;}
	.st5{fill:#A8D2ED;stroke:#231F20;stroke-width:0.25;stroke-miterlimit:10;}
	.st6{fill:#C5E1F3;stroke:#231F20;stroke-width:0.25;stroke-miterlimit:10;}
	.st7{fill:#E2F0F9;stroke:#231F20;stroke-width:0.25;stroke-miterlimit:10;}
	.st8{fill:#FFFFFF;stroke:#231F20;stroke-width:0.25;stroke-miterlimit:10;}
	.st9{fill:#FFD93B;stroke:#231F20;stroke-width:0.25;stroke-miterlimit:10;}
	.st10{fill:#FFDE57;stroke:#231F20;stroke-width:0.25;stroke-miterlimit:10;}
	.st11{fill:#FFE473;stroke:#231F20;stroke-width:0.25;stroke-miterlimit:10;}
	.st12{fill:#FFE98F;stroke:#231F20;stroke-width:0.25;stroke-miterlimit:10;}
	.st13{fill:#FFEFAB;stroke:#231F20;stroke-width:0.25;stroke-miterlimit:10;}
	.st14{fill:#FFF4C7;stroke:#231F20;stroke-width:0.25;stroke-miterlimit:10;}
	.st15{fill:#FFFAE3;stroke:#231F20;stroke-width:0.25;stroke-miterlimit:10;}
	.st16{fill:#E1315B;stroke:#231F20;stroke-width:0.25;stroke-miterlimit:10;}
	.st17{fill:#E54E72;stroke:#231F20;stroke-width:0.25;stroke-miterlimit:10;}
	.st18{fill:#EA6C8A;stroke:#231F20;stroke-width:0.25;stroke-miterlimit:10;}
	.st19{fill:#EE89A1;stroke:#231F20;stroke-width:0.25;stroke-miterlimit:10;}
	.st20{fill:#F2A7B9;stroke:#231F20;stroke-width:0.25;stroke-miterlimit:10;}
	.st21{fill:#F6C4D0;stroke:#231F20;stroke-width:0.25;stroke-miterlimit:10;}
	.st22{fill:#FBE2E8;stroke:#231F20;stroke-width:0.25;stroke-miterlimit:10;}
	.st23{fill:#F47D4A;stroke:#231F20;stroke-width:0.25;stroke-miterlimit:10;}
	.st24{fill:#F69064;stroke:#231F20;stroke-width:0.25;stroke-miterlimit:10;}
	.st25{fill:#F7A27E;stroke:#231F20;stroke-width:0.25;stroke-miterlimit:10;}
	.st26{fill:#F9B598;stroke:#231F20;stroke-width:0.25;stroke-miterlimit:10;}
	.st27{fill:#FAC7B1;stroke:#231F20;stroke-width:0.25;stroke-miterlimit:10;}
	.st28{fill:#FCDACB;stroke:#231F20;stroke-width:0.25;stroke-miterlimit:10;}
	.st29{fill:#FDECE5;stroke:#231F20;stroke-width:0.25;stroke-miterlimit:10;}
	.st30{fill:#1BAA69;stroke:#231F20;stroke-width:0.25;stroke-miterlimit:10;}
	.st31{fill:#3CB67E;stroke:#231F20;stroke-width:0.25;stroke-miterlimit:10;}
	.st32{fill:#5CC294;stroke:#231F20;stroke-width:0.25;stroke-miterlimit:10;}
	.st33{fill:#7DCEA9;stroke:#231F20;stroke-width:0.25;stroke-miterlimit:10;}
	.st34{fill:#9DDBBF;stroke:#231F20;stroke-width:0.25;stroke-miterlimit:10;}
	.st35{fill:#BEE7D4;stroke:#231F20;stroke-width:0.25;stroke-miterlimit:10;}
	.st36{fill:#DEF3EA;stroke:#231F20;stroke-width:0.25;stroke-miterlimit:10;}
	.st37{fill:#3597D4;}
	.st38{fill:#FFD93B;}
	.st39{fill:#E1315B;}
	.st40{fill:#F47D4A;}
	.st41{fill:#1BAA69;}
	.st42{fill:#FFFFFF;}
	.st43{fill:#7DCEA9;}
	.st44{fill:#1A1A1A;}
	.st45{fill:#E2CDBD;}
	.st46{fill:#FBFDFC;}
	.st47{fill:#FCFEFD;}
	.st48{fill:#F5FAF7;}
	.st49{fill:#DDEDE6;}
	.st50{fill:#DBE6E1;}
	.st51{fill:#B7B7B7;}
	.st52{fill:#D1D3D2;}
	.st53{fill:#5AB28A;}
	.st54{fill:#CCCCCC;}
	.st55{fill:#EAEFED;}
	.st56{fill:#DFF6EB;}
	.st57{fill:#8D9692;}
	.st58{fill:#CCDDD5;}
	.st59{fill:#97A9A1;}
	.st60{fill:#D6D8D7;}
	.st61{fill:#D9EDE4;}
	.st62{fill:#EAE8E7;}
	.st63{fill:#86BBA3;}
	.st64{fill:#B6C6BF;}
	.st65{fill:#B2B2B2;}
	.st66{fill:#6A8176;}
	.st67{fill:#A9D5C1;}
	.st68{fill:#EDF9F3;}
	.st69{fill:#22D080;}
	.st70{fill:#B2D3C4;}
	.st71{fill:#878787;}
	.st72{fill:#D7D7D7;}
	.st73{fill:#9FDCC0;}
	.st74{fill:#3B3B3B;}
	.st75{fill:#AAC1B6;}
	.st76{fill:#FEFEFE;}
	.st77{fill:#1A1B1A;}
	.st78{fill:#1A1C1B;}
	.st79{fill:#1A3B2C;}
	.st80{fill:#1A8B58;}
	.st81{fill:#649D83;}
	.st82{fill:#C3F2DC;}
	.st83{fill:#1B1B1B;}
	.st84{fill:#49D897;}
	.st85{fill:#E1D0C3;}
	.st86{fill:#1C1C1B;}
	.st87{fill:#DD8686;}
	.st88{fill:#5F5F5F;}
	.st89{fill:#555555;}
	.st90{fill:#E8E8E8;}
	.st91{fill:#D0BBA1;}
	.st92{fill:#5B5B5B;}
	.st93{fill:#C4C4C4;}
	.st94{fill:#7A6A55;}
	.st95{fill:#D5D5D5;}
	.st96{fill:#949494;}
	.st97{fill:#CACACA;}
	.st98{fill:#B3B3B3;}
	.st99{fill:#AAAAAA;}
	.st100{fill:#CFCFCF;}
	.st101{fill:#AEAEAE;}
	.st102{fill:#545655;}
	.st103{fill:#DEDEDE;}
	.st104{fill:#C1A582;}
	.st105{fill:#CDCDCD;}
	.st106{fill:#676767;}
	.st107{fill:#B4B4B4;}
	.st108{fill:#4E4E4E;}
	.st109{fill:#A0A0A0;}
	.st110{fill:#A3A3A3;}
	.st111{fill:#6C6C6C;}
	.st112{fill:#5C5C5C;}
	.st113{fill:#767676;}
	.st114{fill:#C0C0C0;}
	.st115{fill:#ACACAC;}
	.st116{fill:#9D9D9D;}
	.st117{fill:#4D4D4D;}
	.st118{fill:#7B7B7B;}
	.st119{fill:#B1B1B1;}
	.st120{fill:#BDBDBD;}
	.st121{fill:#717171;}
	.st122{fill:#444444;}
	.st123{fill:#C8C8C8;}
	.st124{fill:#656565;}
	.st125{fill:#9F9F9F;}
	.st126{fill:#868686;}
	.st127{fill:#969696;}
	.st128{fill:#393939;}
	.st129{fill:#C2C2C2;}
	.st130{fill:#606060;}
	.st131{fill:#484848;}
	.st132{fill:#575757;}
	.st133{fill:#AFAFAF;}
	.st134{fill:#8F8F8F;}
	.st135{fill:#565656;}
	.st136{fill:#C9C9C9;}
	.st137{fill:#919191;}
	.st138{fill:#DBDBDB;}
	.st139{fill:#CBCBCB;}
	.st140{fill:#747474;}
	.st141{fill:#727272;}
	.st142{fill:#525252;}
	.st143{fill:#B8B8B8;}
	.st144{fill:#D0D0D0;}
	.st145{fill:#434343;}
	.st146{fill:#535353;}
	.st147{fill:#5D5D5D;}
	.st148{fill:#686868;}
	.st149{fill:#9A9A9A;}
	.st150{fill:#6A6A6A;}
	.st151{fill:#797979;}
	.st152{fill:#999999;}
	.st153{fill:#C3C3C3;}
	.st154{fill:#333333;}
	.st155{fill:#FFD93B;stroke:#FFD93B;stroke-miterlimit:10;}
	.st156{fill:#948067;}
	.st157{fill:#DBDAD9;}
	.st158{fill:#4B4339;}
	.st159{fill:#8F7C63;}
	.st160{fill:#433C33;}
	.st161{fill:#494137;}
	.st162{fill:#988369;}
	.st163{fill:#84725C;}
	.st164{fill:#DFDEDC;}
	.st165{fill:#413C35;}
	.st166{fill:#1D5B3F;}
	.st167{fill:#786855;}
	.st168{fill:#595959;}
	.st169{fill:#D1D0CF;}
	.st170{fill:#848484;}
	.st171{fill:#D8D1C8;}
	.st172{fill:#83725B;}
	.st173{fill:#49423B;}
	.st174{fill:#BAB4AB;}
	.st175{fill:#1D6644;}
	.st176{fill:#AEA79E;}
	.st177{fill:#5A4F42;}
	.st178{fill:#8C7962;}
	.st179{fill:#2D2925;}
	.st180{fill:#2F2F2F;}
	.st181{fill:#5F5344;}
	.st182{fill:#989898;}
	.st183{fill:#1C5B3E;}
	.st184{fill:#6B6B6B;}
	.st185{fill:#7A6A56;}
	.st186{fill:#756653;}
	.st187{fill:#85735D;}
	.st188{fill:#7F6F59;}
	.st189{fill:#404040;}
	.st190{fill:#4B453D;}
	.st191{fill:#675F55;}
	.st192{fill:#766857;}
	.st193{fill:#4E453B;}
	.st194{fill:#8D8D8D;}
	.st195{fill:#4D443A;}
	.st196{fill:#4A4238;}
	.st197{fill:#50473C;}
	.st198{fill:#6B5D4C;}
	.st199{fill:#95826A;}
	.st200{fill:#D7D4D1;}
	.st201{fill:#CEC9C3;}
	.st202{fill:#808080;}
	.st203{fill:#959595;}
	.st204{fill:#1D6141;}
	.st205{fill:#8D7A62;}
	.st206{fill:#787774;}
	.st207{fill:#736451;}
	.st208{fill:#626262;}
	.st209{fill:#1E8154;}
	.st210{fill:#907C63;}
	.st211{fill:#979797;}
	.st212{fill:#3A352E;}
	.st213{fill:#342F2A;}
	.st214{fill:#363636;}
	.st215{fill:#828282;}
	.st216{fill:#231F20;stroke:#FFD93B;stroke-width:0.25;stroke-miterlimit:10;}
	.st217{fill:#FDFFFE;}
	.st218{fill:#73E1AF;}
	.st219{fill:#7BE3B3;}
	.st220{fill:#CDF4E3;}
	.st221{fill:#82E5B8;}
	.st222{fill:#1D1C1C;}
	.st223{fill:#353534;}
	.st224{fill:#3C3A38;}
	.st225{fill:#594E41;}
	.st226{fill:#88765E;}
	.st227{fill:#50473B;}
	.st228{fill:#5F5345;}
	.st229{fill:#8D7A61;}
	.st230{fill:#84735C;}
	.st231{fill:#BAB3A9;}
	.st232{fill:#D9D0C5;}
	.st233{fill:#CDBDA8;}
	.st234{fill:#C6BAAC;}
	.st235{fill:#D6C5AF;}
	.st236{fill:#D0C6B9;}
	.st237{fill:#736759;}
	.st238{fill:#EBEAE8;}
	.st239{fill:#DE8787;}
	.st240{fill:#473333;}
	.st241{fill:#634343;}
	.st242{fill:#774E4E;}
	.st243{fill:none;stroke:#7DCEA9;stroke-width:8;stroke-miterlimit:10;}
	.st244{fill:#231F20;}
	.st245{fill:#FFFFFF;stroke:#1BAA69;stroke-width:60;stroke-miterlimit:10;}
	.st246{fill:none;stroke:#FFD93B;stroke-width:6;stroke-miterlimit:10;}
	.st247{fill:none;stroke:#1BAA69;stroke-width:17;stroke-miterlimit:10;}
	.st248{fill-rule:evenodd;clip-rule:evenodd;fill:#FCFDFC;stroke:#231F20;stroke-width:0.5;stroke-miterlimit:10;}
	.st249{fill-rule:evenodd;clip-rule:evenodd;fill:#2E2E2C;}
	.st250{fill-rule:evenodd;clip-rule:evenodd;fill:#F4F4F3;}
	.st251{fill-rule:evenodd;clip-rule:evenodd;fill:#282B2B;}
	.st252{fill-rule:evenodd;clip-rule:evenodd;fill:#242220;}
	.st253{fill-rule:evenodd;clip-rule:evenodd;fill:#2C2624;}
	.st254{fill-rule:evenodd;clip-rule:evenodd;fill:#313131;}
	.st255{fill-rule:evenodd;clip-rule:evenodd;fill:#FCFDFC;stroke:#231F20;stroke-width:0.2;stroke-miterlimit:10;}
	.st256{fill-rule:evenodd;clip-rule:evenodd;fill:#F0D2BC;stroke:#231F20;stroke-width:0.1;stroke-miterlimit:10;}
	.st257{fill-rule:evenodd;clip-rule:evenodd;fill:#60ABC5;}
	.st258{fill-rule:evenodd;clip-rule:evenodd;fill:#FCFDFC;}
	.st259{fill-rule:evenodd;clip-rule:evenodd;fill:#414241;}
	.st260{fill-rule:evenodd;clip-rule:evenodd;fill:#F48D8B;}
	.st261{fill-rule:evenodd;clip-rule:evenodd;fill:#EDCFB9;}
	.st262{fill-rule:evenodd;clip-rule:evenodd;fill:#5D5C57;}
	.st263{fill-rule:evenodd;clip-rule:evenodd;fill:#D39B9D;}
	.st264{fill-rule:evenodd;clip-rule:evenodd;fill:#9AEDBE;stroke:#404041;stroke-width:7;stroke-miterlimit:10;}
	.st265{fill-rule:evenodd;clip-rule:evenodd;fill:#EAD3C3;stroke:#404041;stroke-width:3;stroke-miterlimit:10;}
	.st266{fill:#1BA969;}
	.st267{fill-rule:evenodd;clip-rule:evenodd;fill:#1BAA69;stroke:#231F20;stroke-miterlimit:10;}
	.st268{fill-rule:evenodd;clip-rule:evenodd;fill:#1BAA69;stroke:#231F20;stroke-width:5;stroke-miterlimit:10;}
	.st269{fill:#E0315B;}
</style>
<path class="st266" d="M1138.3,260.5c0,6,0,11.9,0,17.9c-0.4,0.2-0.2,0.6-0.2,0.9c-0.5,8.8-1.5,17.5-3.2,26.1
	c-3.4,17.5-9.1,34.3-17.3,50.2c-11.8,23-27.6,42.7-47.4,59.3c-18.8,15.6-39.8,27.2-63,34.7c-15.2,4.9-30.8,7.8-46.7,8.7
	c-2.7,0.2-5.3,0.3-8,0.4c-2.2,0-4.4,0-6.6,0c-0.4,0-0.7-0.1-1.1-0.1c-6.1-0.1-12.2-0.5-18.2-1.3c-13.3-1.6-26.2-4.5-38.9-8.9
	c-28.2-9.8-52.8-25.3-73.8-46.6c-14.2-14.5-25.8-30.8-34.7-49c-12.3-25-18.5-51.5-19.4-79.3c0-2.8,0-5.6,0-8.4
	c0.1-0.9,0.2-1.8,0.2-2.6c0.3-10.1,1.5-20.1,3.4-29.9c3.5-17.7,9.4-34.6,17.8-50.7c9.8-18.7,22.3-35.3,37.7-49.9
	c14.6-13.8,30.9-25.1,49.1-33.7c19.6-9.3,40.3-15.1,61.9-17.2c9.3-0.9,18.7-1.2,28-0.7c10.7,0.5,21.3,1.9,31.7,4.1
	c16.1,3.5,31.5,9.1,46.1,16.6c19,9.8,35.8,22.5,50.6,38c13.8,14.5,25,30.7,33.6,48.8c10.4,21.8,16.4,44.8,18,68.9
	C1138,258,1137.9,259.3,1138.3,260.5z M903,332.9c-1.9-2.1-3.9-3.9-5.7-5.9c-3.1-3.4-6.4-6.7-9.6-10.1c-3.4-3.5-6.8-7.1-10.2-10.6
	c-3.5-3.7-7-7.4-10.6-11c-2.1-2.1-4-4.5-6.4-6.3c-4.2-3.3-9.1-5.2-14.4-5.6c-11.1-0.9-19.9,3-25.8,12.7c-3.8,6.2-5.1,13-3.7,20.2
	c1.1,5.6,3.8,10.4,7.8,14.4c3.5,3.6,6.9,7.2,10.3,10.8c3.2,3.3,6.3,6.6,9.5,9.9c3.7,3.8,7.3,7.7,11,11.5c3,3.1,5.8,6.2,8.8,9.2
	c3.9,4,7.7,8,11.5,12c2.3,2.4,4.5,4.7,6.8,7c0.5,0.5,0.9,1,1.4,1.4c2.9,3.2,5.9,6.3,9.8,8.2c4.9,2.4,10.1,3.2,15.5,2.7
	c8.1-0.8,14.5-4.6,19.5-11c2-2.6,3.9-5.4,5.8-8.1c7.3-10.4,14.5-20.7,21.8-31.1c4.8-6.9,9.7-13.8,14.5-20.8
	c15.9-22.7,31.8-45.4,47.6-68.1c6-8.6,12.1-17.2,18.1-25.9c6.1-8.7,12.1-17.4,18.2-26.1c1.9-2.7,3.9-5.3,5.7-8.1
	c2.2-3.5,3-7.4,3.2-11.4c0.4-5.9-1-11.4-4.2-16.5c-2.5-3.9-5.6-7.3-9.9-9.4c-5-2.5-10.3-3.7-15.9-3.2c-6.4,0.6-11.8,3.4-16.5,7.7
	c-2.5,2.3-4.4,5-6.4,7.8c-6.3,9-12.7,18.1-19,27.1c-6,8.7-12,17.3-18.1,26c-21.2,30.3-42.4,60.7-63.6,91
	C907.6,326.4,905.3,329.6,903,332.9z"/>
<g>
	<g>
		<g>
			<path class="st248" d="M335.6,1247.8c-0.8-20.1,7.7-364.1,11.8-381.6c4.6-19.5,3.7-40.2,10.1-59.4c7.4-21.9,17.5-41.9,40-49.9
				c26.7-9.6,54-17.6,80.6-27.6c9.6-3.6,12.1-2.3,13.2,8.3c1.4,13.2,5.5,25.7,20.5,27.9c12.7,1.8,14.6,9.6,14.7,21.9
				c0.7,68.6,2.2,137.2,3.7,205.8c0.3,14.8-0.5,29.5,2.5,44.3c1.3,6.6,3.4,10.5,8.9,11c11.1,1,9.7,9.3,9.8,17
				c-1.2,4.8-3.6,9.6-3.3,14.3c0.9,14.1-7.7,31,5.4,41.8c26.7,22.1,49,49.8,79.1,67.3c3,1.8,7.7,3.8,8.2,6.5
				c4.2,20.1,26.6,16.5,35.9,31c2.2,3.5,9.5,11.2,19.6,11.1c16.6-0.1,26.9-9.4,37.8-19.5c8.2,13.7,16.4,27.4,24.6,41.2
				c-106.8,0-213.6,0-320.4,0c-0.7-36.1,2.4-72.3-1.9-108.4c-0.5-1.3-1-2.6-1.5-3.9c-0.3-8.6,0.3-17.5-1.1-26
				c-9.7-61.3-23.9-121.9-20.1-184.8c0.1-2.4-0.5-4.8-1.1-10.5c-11.1,17.2-2.4,34.2-7.7,48.9c-11.1-8.5-17.8-22.1-32.2-23.2
				c2.4,4.9,5.9,8,9.4,11c12.6,10.6,23.7,22.5,26.5,40c3.7,23.9,42.8,234.9,24.9,256.1 M393.3,1026c-1.4-25.3-8.7-39.8-21.4-45.7
				C378.6,994.6,385,1008.2,393.3,1026z"/>
			<path class="st249" d="M758.8,1259.2c-8.2-13.7-16.4-27.4-24.6-41.2c0.9-2.6,2.7-3.5,5.2-3.5c4.8,7.5,10.3,14.8,14.4,22.7
				c8.7,16.9,19.6,19.3,33.4,6.9l-0.4,0.3c40.5-29.3,78.8-61.6,116.2-95c17.4-15.6,31.5-31.5,33.1-58c0.8-13,4.9-27.8,15.8-37.9
				c11.8-10.9,14.7-25.3,15.6-41.5c1.5-24.8-2-47.2-18.4-66l-0.3,0.4c17.6,5.7,26.9,22.7,26,45.6c-1,27.2-0.4,54.1-23.4,74.4
				c-6.3,5.6-8.5,19-9,29c-1.1,22.3-11.3,38.5-26.7,52c-28.3,24.9-55,52.1-86.4,72.8c-15.3,10-21.4,21.1-14.2,39c-2.3,0-4.7,0-7.1,0
				c0-6.4-0.4-12.6-6.5-18.9c-4.3,10.8-14.8,12.2-21.7,18.9C772.9,1259.2,765.8,1259.2,758.8,1259.2z"/>
			<path class="st249" d="M434.8,1259.2c-6.8-24.3-2.6-49.3-3-73.9c-0.6-36.4-7.9-71.8-11.3-107.6c-1.1-11.4-6.9-9-13.1-4.7
				c-2.2-0.4,5.8-8.3,3.6-8.7c18-21.2,1.4-38-2.4-61.9c-2.8-17.6-13.8-29.5-26.5-40c-3.6-3-7.1-6.1-9.4-11
				c14.4,1.1,21.1,14.7,32.2,23.2c5.3-14.7-3.4-31.7,7.7-48.9c0.6,5.7,1.3,8.1,1.1,10.5c-3.7,62.9,10.5,123.6,20.1,184.8
				c1.3,8.5,0.8,17.3,1.1,26c0.5,1.3,1,2.6,1.5,3.9c4.3,36,1.2,72.3,1.9,108.4C437.2,1259.2,436,1259.2,434.8,1259.2z"/>
			<path class="st251" d="M346.1,827c1.2-6.6,2.6-12.9,4.3-18.9c9-32.3,26.3-55.6,62.5-64c22.4-5.1,43.7-14.9,65.7-22.1
				c7.3-2.4,11-8,14.3-14.4c4.4,0.5,5.4,3.7,5.3,7.6c-6.1,22.5,2.2,39.8,22.9,44.8c9.3,2.2,15.2,6.3,14.1,16.1
				c-5.9,55,1.8,109.9,1.8,164.9c0,29.6-2.3,59.4,2.9,88.9c1.1,6.4,0.6,12.9,9,12.9c8.9,0,5.7-8.2,6.6-12.6
				c3.7-17.3,6.6-34.8,9.5-52.4c0.8-5.1-0.6-7-2.3-6c-14.2,9.5-10-7.6-10.2-9.8c-4.5-39.8-12-79.5-8.2-119.8
				c2.2-23.2,5.6-46.3,15.9-67.5c2.2-4.6,4.7-9.1,10.5-6.7c4.4,1.8,8.8,4.4,8.5,10.5c-0.3,4.9-1,9.7-2,14.5
				c-10.5,51.8-9.9,104-6.8,156.5c13.7-50.7,24.1-101.9,26.9-154.7c1-17.7,3.7-35.6,20-47c11.2-7.9,21.6-17,32.2-25.7
				c20.5-16.9,18.4-33.8-5.7-46.4c-3.5,49.4-5.7,51.4-53.2,62.6c-8,1.9-18.4,2-22.2,14.7c-2.2,7.5-8.3,2.5-12.4-0.7
				c0.8-2.6,1.6-5.1,2.4-7.7c15.3-8.7,31.7-12.4,48.7-16.5c24-5.7,32.6-20.2,27.7-46.5c-1.9-10.2-6.4-19.8-7.5-30
				c-2.2-19.8-15.9-38.4-5.7-59.5c1.4,0.1,2.7,0.2,4.1,0.3c-2.8,20.8,1.9,41.4,9.8,58.9c6.1,13.3,18.8,26.1,35.1,30.3
				c36.4,9.4,73,17.7,110.2,23.7c44.8,7.2,73.3,40.9,89.8,82.1c20.3,50.7,50.2,95.3,73.6,143.8c2.4,4.9,6.3,9.1,4.9,15.2l0.3-0.4
				c-5.2-0.9-8-5.3-10-9.4c-24.2-48.9-54.1-94.4-75.1-145.3c-14-33.8-34.7-64.2-70.6-74.3c-36.7-10.3-74.5-16.2-111.8-24.3
				c-8.5-1.9-12.5-0.5-10.9,10c1.4,9.2-5.2,14.8-10.8,20c-8.8,8.2-18,15.8-27.4,23.1c-24.9,19.6-36.1,52.6-28.3,84.4
				c1,4,4,3.7,6.8,4.2c-20,10.2-12.1,31.9-17.4,48.2c-1.6,5-1.6,10.6-2.9,16c-11.1,44.2-21.6,88.5-28.5,133.7
				c-0.7,4.8-5.8,14.6,6.3,14.3c0,3.2-0.5,6-3.5,7.7c-14.1,0.4-2.2,15.7-10.1,19.6c-1.2-2.8-2.3-5.6-3.5-8.4c-0.1-7.7,1.4-16-9.8-17
				c-5.5-0.5-7.6-4.4-8.9-11c-3-14.8-2.2-29.5-2.5-44.3c-1.5-68.6-3-137.2-3.7-205.8c-0.1-12.3-2-20.1-14.7-21.9
				c-15.1-2.2-19.1-14.7-20.5-27.9c-1.1-10.5-3.6-11.9-13.2-8.3c-26.6,10-53.8,18-80.6,27.6c-22.5,8-32.6,28.1-40,49.9
				c-6.5,19.2-5.5,39.9-10.1,59.4c-4.1,17.6-12.5,358.1-11.8,378.3 M570.5,776.3c-28,58.4-20.7,118.6-10,179.1
				C562.1,895.5,557.4,835.2,570.5,776.3z"/>
			<path class="st252" d="M625.5,592.4c-1.4-0.1-2.7-0.2-4.1-0.3c0.9-5.2,4.3-7.1,8.8-7.1c13.6,0,20.5-10.7,27.6-20.1
				c7-9.2,6.6-18.3-1.8-27.8c-8.5-9.7-16.2-6.7-24.4-1.3c-7.9,5.2-16.2,10.1-23.1,16.6c-11.4,10.7-13.4,1.8-15.2-7.4
				c-3-15.2-4.6-30.6-3.3-46.1c0.8-9.8-3.8-13.7-11.7-14.5c-44.5-4.2-89.1-6.6-133.9-4.3c-9.1,0.5-11.5,4.4-13.3,12.9
				c-5.7,26.6-2.5,52.4,3.7,78.4c10.4,43,21.1,85.7,51.7,119c6.2,6.8,12,10.6,21.1,9.9c24.3-1.7,45-11.7,62.2-29.5
				c9.6-10,18.5-20.8,27.6-31.3c1.4,1.7,2.7,3.5,4.1,5.2c-24,34.1-53,60.4-96.6,64.1c11.8,20.3,22.9,28.4,40.6,29
				c5.7,0.2,10.4,0.3,12.7,6.8c-0.8,2.6-1.6,5.1-2.4,7.7c-2-8.6-9-5.5-14.2-6.6c-18.5-3.8-33.7-12.8-43.4-30.5
				c0.1-3.9-0.9-7.1-5.3-7.6c-38.9-35.9-52.8-85-65.2-135.4c-8.1-33.1-5.3-65.1-0.9-98.4c3.7-27.3,4.3-55.3,5.1-83.2
				c1.5-52.7,2.2-44.5,42.5-44.2c49.4,0.4,98.3,4.8,144.9,25.3c30.5,13.4,45.5,37,44.4,71.6c-0.9,28.3,3.2,56.9-2.5,85
				c-0.8,3.9,2.1,5.3,3.4,7.9c10.3,21.3-9.8,57.8-32.8,59.2C629.7,595.6,627.6,593.5,625.5,592.4z M656.6,473.5
				c0-11.6-0.1-20.3,0-28.9c0.2-31.8-12.2-54.2-41.1-66.2C563.4,356.7,508.9,354,454,353.8c-6.8,0-10.5,3.2-12.1,10.6
				c-7.2,32.8-0.2,66.6-6.7,99.5c-1.5,7.4,4.2,9.9,10.2,8.7c33.2-6.3,66.3,0.4,99.3,1.6c24.8,0.9,52.3-2.7,74.3,17.5
				c10.3,9.5,23,16.2,34.6,24.1C660.7,501.2,654.1,485.6,656.6,473.5z M602.2,545.4c11.3-6.9,22.3-13.6,33.3-20.3
				c3.7-2.2,8.5-6,2.6-9.1c-13.9-7.3-24-21-40.5-26.4C596.6,509.2,595.1,527.2,602.2,545.4z"/>
			<path class="st253" d="M565.1,1054.2c3-1.7,3.5-4.6,3.5-7.7c-1-8.2,2.1-15.6,3.4-23.4c10.2-64.3,25-127.4,45.8-188.8
				c2.7,1.2,5.6,1.8,7.9,3.5c47.4,34.8,94.8,69.8,142.2,104.6c3.9,2.8,7.1,8.7,12.5,5.2c-6.8-32.3-29.1-59.9-23.7-94.7
				c9.7,6.6,1,22,8.1,24.1c15.3,4.5,10.9,15.6,10.7,24.9c-0.4,14.4,3.6,26.4,11.7,37.7c12.5,17.6,29.6,30.7,42,48.7
				c3.8,5.5,10.4,13.1,19,2.9c2.8-3.4,8.9-1.8,12.5,5.9c-12.2-1.9-14,10.3-21.1,15.5c-17.1,12.5-42.8,14.7-45.8,43.7
				c-18.7,6.5-32,22-48.1,32.6c4.6-17.7,18.8-24.6,32.3-32.5c4.8-2.8,11.1-3,12.9-10.9c3.9-16.9,14-27.2,30.7-30.9
				c5.9-1.3,11.1-6.4,16.2-9.5C770.4,951.5,700.4,903,632.3,851.8c-8.1-6.1-11.2-7.7-14.8,5.1c-21.6,77.1-42.5,154.2-46.3,235.4
				c-0.7,14.6,4.8,21.7,13.4,28.4c21.6,17,43.9,32.9,64,52.1c3.2,3,6.9,4.6,11.2,4.5c-0.2,9.4-9,15.7-8,25.3
				c8.6,3.3,13.4-9.3,23.1-6c-8.4,14.6-2.6,18.4,10.5,24.5c20.3,9.5,24.6,11.2,39.5-5.4c9.7-10.9,16.4-24.1,24.8-35.8
				c12.6-17.6,5.3-32.4,0.4-49.8c-4.9-17.3-17.3-16.5-28.5-19.4c-25.2-6.7-49.8-9.2-68.5,15.7c-3.2,4.3-12.9,4.8-8.8,13.3
				c3.1,6.7,10.2,4.3,15.9,4.4c10,0.2,15.9-6.5,21.2-14.3c2.8-4,2.7-11.2,10-10.6c1.5,29.8-2.8,38.9-20.3,43.2
				c0-5.7,8.4-7.3,5.9-15.2c-9.1,5.1-19,5.2-28.6,3.8c-10.7-1.6-16.8-12.6-10.6-19.7c13.4-15.4,27.4-33.2,50.5-32.1
				c19.6,0.9,39.7,6,56.7-9.7c1.9,5.8-7.3,9.9-0.9,17.5c13.4,15.9,18.5,36.6,23.3,56.6c6.5,27,20.1,52.1,19.3,81l0.4-0.3
				c-6-1.9-6.1-7.4-7.4-12.6c-5.1-19.5-10.8-38.8-16.3-58.2c-6.8,15.8-20.9,25.2-24.1,41.1c-2.4,0-4.3,1-5.2,3.5
				c-10.9,10.1-21.2,19.4-37.8,19.5c-10.1,0.1-17.4-7.6-19.6-11.1c-9.3-14.5-31.7-10.9-35.9-31c-0.6-2.7-5.2-4.7-8.2-6.5
				c-30.1-17.6-52.4-45.3-79.1-67.3c-13.1-10.8-4.5-27.7-5.4-41.8c-0.3-4.7,2.1-9.5,3.3-14.3c1.2,2.8,2.3,5.6,3.5,8.4
				c0,10.7,0,21.5,0,32.2C570,1090.9,563.1,1071.7,565.1,1054.2z M581.1,1130.5c13.2,23.8,51.9,54,68.2,54.2
				C628,1163.5,606,1145,581.1,1130.5z M559.4,1115.5c3.9,4.4,5.6,11,13.1,5.7C569.2,1117,567.3,1112.1,559.4,1115.5z M779.9,949.5
				c2.7,2.8,3.5,8.3,11.9,7.1C787.1,952.6,786,947.5,779.9,949.5z"/>
			<path class="st253" d="M393.3,1026c-8.4-17.8-14.7-31.4-21.4-45.7C384.6,986.2,391.9,1000.7,393.3,1026z"/>
			<path class="st254" d="M436.4,1150.8c-0.5-1.3-1-2.6-1.5-3.9C435.5,1148.2,436,1149.5,436.4,1150.8z"/>
			<path class="st255" d="M745.5,1088.9c16.2-10.6,29.4-26.1,48.1-32.6c3-29,28.7-31.3,45.8-43.7c7.1-5.2,8.9-17.4,21.1-15.5
				c-3.6-7.7-9.6-9.3-12.5-5.9c-8.5,10.2-15.2,2.6-19-2.9c-12.3-18-29.4-31-42-48.7c-8-11.3-12.1-23.3-11.7-37.7
				c0.2-9.2,4.7-20.3-10.7-24.9c-7.1-2.1,1.6-17.5-8.1-24.1c-5.4,34.8,16.9,62.4,23.7,94.7c-5.4,3.5-8.6-2.4-12.5-5.2
				c-47.4-34.8-94.8-69.8-142.2-104.6c-2.3-1.7-5.3-2.3-7.9-3.5c-2.2,0-4.5,0-6.7,0c-2.8-0.4-5.8-0.1-6.8-4.2
				c-7.8-31.8,3.4-64.8,28.3-84.4c9.4-7.3,18.6-14.9,27.4-23.1c5.6-5.2,12.2-10.8,10.8-20c-1.6-10.5,2.4-11.9,10.9-10
				c37.3,8.1,75.1,14,111.8,24.3c35.9,10,56.6,40.4,70.6,74.3c21,50.9,50.9,96.4,75.1,145.3c2,4.1,4.8,8.5,10,9.4
				c16.4,18.8,19.9,41.2,18.4,66c-1,16.2-3.8,30.6-15.6,41.5c-10.9,10.1-15,24.8-15.8,37.9c-1.5,26.6-15.7,42.5-33.1,58
				c-37.4,33.5-75.8,65.7-116.2,95c0.8-28.9-12.8-54-19.3-81c-4.8-20-9.9-40.7-23.3-56.6c-6.5-7.6,2.7-11.6,0.9-17.5L745.5,1088.9z"
				/>
			<path class="st250" d="M739.3,1214.5c3.2-15.9,17.3-25.3,24.1-41.1c5.5,19.4,11.2,38.7,16.3,58.2c1.4,5.2,1.4,10.7,7.4,12.6
				c-13.8,12.3-24.7,10-33.4-6.9C749.7,1229.3,744.2,1222,739.3,1214.5z"/>
			<path class="st256" d="M558.2,744.6c-2.2-6.5-7-6.6-12.7-6.8c-17.7-0.7-28.8-8.8-40.6-29c43.6-3.7,72.6-29.9,96.6-64.1
				c-1.4-1.7-2.7-3.5-4.1-5.2c-9.2,10.4-18,21.3-27.6,31.3c-17.2,17.9-37.9,27.8-62.2,29.5c-9.1,0.7-14.9-3.1-21.1-9.9
				c-30.6-33.3-41.3-76-51.7-119c-6.3-25.9-9.5-51.8-3.7-78.4c1.8-8.5,4.3-12.4,13.3-12.9c44.8-2.3,89.3,0.1,133.9,4.3
				c7.9,0.7,12.5,4.7,11.7,14.5c-1.3,15.5,0.4,30.9,3.3,46.1c1.8,9.2,3.8,18.1,15.2,7.4c6.9-6.5,15.2-11.4,23.1-16.6
				c8.2-5.4,15.9-8.4,24.4,1.3c8.4,9.5,8.8,18.6,1.8,27.8c-7.2,9.4-14,20.2-27.6,20.1c-4.5,0-7.9,1.9-8.8,7.1
				c-10.2,21.1,3.5,39.7,5.7,59.5c1.1,10.2,5.6,19.9,7.5,30c4.9,26.3-3.7,40.7-27.7,46.5C589.9,732.2,573.5,735.9,558.2,744.6z
				 M553.8,525.8c1.3,3.2,2.7,8.6,6.5,5.8c3.8-2.8-0.2-6.2-2.8-8.6c-15.5-14.4-33.6-10.4-39.3,8.6
				C537.1,519.2,538.4,519,553.8,525.8z M521.7,659.4c8.3-3,18.3-2.1,24.8-10.8c2.4-3.2,5.4-6.7,2.3-11.6c-2.5-3.9-6-7.6-9.9-6.1
				c-17.1,6.7-34.6,9.9-52.8,9.9c-5.2,0-7.2,4.9-7.3,8.9c-0.1,3.7,3.7,5.8,7.6,5.8C498.1,655.7,509.8,655,521.7,659.4z"/>
			<path class="st267" d="M498.2,715.2c9.7,17.7,24.9,26.7,43.4,30.5c5.2,1,12.1-2.1,14.2,6.6c4.1,3.2,10.2,8.2,12.4,0.7
				c3.8-12.7,14.2-12.8,22.2-14.7c47.6-11.3,49.7-13.2,53.2-62.6c24.1,12.6,26.2,29.6,5.7,46.4c-10.6,8.7-21,17.8-32.2,25.7
				c-16.3,11.4-19,29.3-20,47c-2.8,52.8-13.2,104-26.9,154.7c-3.1-52.5-3.7-104.8,6.8-156.5c1-4.8,1.7-9.7,2-14.5
				c0.3-6.1-4.1-8.7-8.5-10.5c-5.8-2.4-8.3,2.1-10.5,6.7c-10.3,21.2-13.7,44.3-15.9,67.5c-3.7,40.3,3.7,80,8.2,119.8
				c0.3,2.2-3.9,19.3,10.2,9.8c1.6-1.1,3.1,0.8,2.3,6c-2.9,17.5-5.7,35.1-9.5,52.4c-0.9,4.4,2.3,12.6-6.6,12.6
				c-8.3,0-7.8-6.5-9-12.9c-5.3-29.5-3-59.3-2.9-88.9c0.1-55-7.7-109.9-1.8-164.9c1-9.8-4.8-13.9-14.1-16.1
				C500.3,755,492.1,737.7,498.2,715.2z"/>
			<path class="st250" d="M611,834.3c2.2,0,4.5,0,6.7,0c-20.8,61.4-35.6,124.5-45.8,188.8c-1.2,7.8-4.4,15.3-3.4,23.4
				c-12.1,0.3-7-9.5-6.3-14.3c6.9-45.1,17.4-89.5,28.5-133.7c1.4-5.4,1.4-11.1,2.9-16C598.9,866.2,591,844.5,611,834.3z"/>
			<path class="st250" d="M570.5,776.3c-13.1,59-8.4,119.2-10,179.1C549.8,894.9,542.6,834.7,570.5,776.3z"/>
			<path class="st258" d="M565.1,1054.2c-2,17.4,4.9,36.7-10.1,51.8c0-10.7,0-21.5,0-32.2C562.9,1069.9,550.9,1054.6,565.1,1054.2z"
				/>
			<path class="st254" d="M656.6,473.5c-2.5,12,4.1,27.7-3.1,42.3c-11.6-8-24.3-14.6-34.6-24.1c-22-20.2-49.5-16.6-74.3-17.5
				c-32.9-1.2-66.1-7.9-99.3-1.6c-5.9,1.1-11.6-1.4-10.2-8.7c6.5-32.9-0.6-66.7,6.7-99.5c1.6-7.4,5.4-10.6,12.1-10.6
				c54.9,0.3,109.4,3,161.5,24.6c28.9,12,41.4,34.4,41.1,66.2C656.6,453.3,656.6,461.9,656.6,473.5z"/>
			<path class="st259" d="M602.2,545.4c-7.1-18.2-5.6-36.2-4.7-55.7C614,495,624.2,508.7,638,516c5.9,3.1,1.1,6.8-2.6,9.1
				C624.5,531.7,613.5,538.5,602.2,545.4z"/>
			<path class="st260" d="M659.9,1177.3c-4.3,0.1-8-1.5-11.2-4.5c-20-19.1-42.4-35.1-64-52.1c-8.6-6.7-14.1-13.8-13.4-28.4
				c3.8-81.2,24.7-158.3,46.3-235.4c3.6-12.8,6.7-11.2,14.8-5.1c68.1,51.2,138.1,99.7,205.2,153.3c-5,3.1-10.2,8.2-16.2,9.5
				c-16.7,3.7-26.8,14-30.7,30.9c-1.8,7.9-8.1,8-12.9,10.9c-13.4,7.9-27.7,14.8-32.3,32.5l-0.5,0.5c-17,15.7-37.1,10.6-56.7,9.7
				c-23.1-1.1-37.1,16.7-50.5,32.1c-6.2,7.1-0.1,18.2,10.6,19.7c9.6,1.4,19.6,1.3,28.6-3.8c2.4,7.8-5.9,9.4-5.9,15.2
				C667.3,1167.3,663.6,1172.3,659.9,1177.3z"/>
			<path class="st261" d="M659.9,1177.3c3.7-5,7.5-10,11.2-15c17.4-4.3,21.7-13.4,20.3-43.2c-7.3-0.6-7.2,6.6-10,10.6
				c-5.3,7.7-11.2,14.4-21.2,14.3c-5.7-0.1-12.8,2.3-15.9-4.4c-4-8.5,5.6-9,8.8-13.3c18.7-24.9,43.4-22.4,68.5-15.7
				c11.3,3,23.7,2.1,28.5,19.4c4.9,17.4,12.2,32.2-0.4,49.8c-8.4,11.7-15.1,24.9-24.8,35.8c-14.9,16.6-19.2,14.9-39.5,5.4
				c-13-6.1-18.9-9.9-10.5-24.5c-9.8-3.3-14.5,9.4-23.1,6C650.9,1193,659.7,1186.7,659.9,1177.3z"/>
			<path class="st262" d="M581.1,1130.5c24.9,14.5,46.9,33,68.2,54.2C632.9,1184.5,594.2,1154.3,581.1,1130.5z"/>
			<path class="st262" d="M559.4,1115.5c8-3.4,9.8,1.5,13.1,5.7C564.9,1126.5,563.3,1119.9,559.4,1115.5z"/>
			<path class="st258" d="M779.9,949.5c6.2-2.1,7.2,3,11.9,7.1C783.4,957.8,782.6,952.4,779.9,949.5z"/>
			<path class="st249" d="M521.7,659.4c-12-4.3-23.7-3.7-35.3-3.8c-3.9-0.1-7.6-2.1-7.6-5.8c0-4,2.1-8.9,7.3-8.9
				c18.2,0,35.7-3.2,52.8-9.9c3.9-1.5,7.4,2.2,9.9,6.1c3.1,4.9,0.1,8.4-2.3,11.6C540.1,657.2,530,656.3,521.7,659.4z M500.2,644.8
				c22,11.4,34.7,8.7,43.3-7.6C529.8,640.6,517.7,646.2,500.2,644.8z"/>
			<path class="st254" d="M553.8,525.8c-15.4-6.8-16.7-6.6-35.7,5.8c5.7-19,23.9-23,39.3-8.6C556.3,523.9,555,524.9,553.8,525.8z"/>
			<path class="st254" d="M557.5,523c2.6,2.4,6.6,5.8,2.8,8.6c-3.7,2.8-5.2-2.6-6.5-5.8C555,524.9,556.3,523.9,557.5,523z"/>
			<path class="st263" d="M500.2,644.8c17.5,1.4,29.6-4.2,43.3-7.6C534.9,653.5,522.2,656.2,500.2,644.8z"/>
		</g>
		<g>
			<g>
				<path class="st244" d="M529.8,567.3c0.6,0,0.6-1,0-1C529.1,566.3,529.1,567.3,529.8,567.3L529.8,567.3z"/>
			</g>
		</g>
		<g>
			<g>
				<path class="st244" d="M454.4,541.5c-4-5.5-9.2-11.7-16.5-12.5c-7.5-0.9-13.3,4.6-17.6,10c-0.2,0.3,0.2,0.6,0.4,0.4
					c3.9-5,9.2-10.2,16.1-10c7.5,0.3,13.1,6.7,17.2,12.4C454.1,542,454.5,541.8,454.4,541.5L454.4,541.5z"/>
			</g>
		</g>
		<g>
			<g>
				<path class="st244" d="M437.3,575.7c0.6,0,0.6-1,0-1C436.7,574.7,436.7,575.7,437.3,575.7L437.3,575.7z"/>
			</g>
		</g>
	</g>
	<g>
		<path class="st268" d="M517.9,1260.4c-70,0.1-220.4,0.1-290.5,0.1c-86.6,0-173.2-0.1-259.7-0.1c0.1-44.9,0.2-89.8,0.2-134.7
			c0-1.4-0.3-33.9,1.2-46.8c0.1-1.8,0.2-3.5,0.4-5.3c1-2.3,1.8-4.6,1.4-7.2c0.1-1.2,0.2-2.3,0.3-3.5c1.2-2.2,1.8-4.6,1.5-7.2
			c0.2-2,0.3-3.9,0.5-5.9c1.2-1.4,1.3-3,1-4.8c4-18.4,7.3-36.9,12.1-55c12.8-48.7,31.6-94.8,55.3-138.8c13-24.2,23.7-49.3,25.8-77.6
			c1.2-1.4,1.3-3,1.1-4.8c0.4-3.1,0.7-6.1,1.1-9.2c0.2-1.7,0.3-3.3,0.5-5c0.4-6.1,0.7-12.1,1.1-18.2c1.2-2.8,0.8-5.7,0.7-8.5
			c0.2-7.3,0.5-14.6,0.7-21.9c1.4-2,1.1-4.4,1-6.7c0.1-1.8,0.2-3.6,0.3-5.4c0.4-2.3,0.8-4.7,1.2-7c0.2-1.8,0.3-3.7,0.5-5.5
			c0.4-2.3,0.8-4.6,1.2-7c7.4-47.9,22.5-92.9,44.5-135.4c1.4-1.6,4-2.5,3-5.6l0,0c10.1-10.7,20.3-21.4,30.4-32.2l-0.1,0.1
			c16.7-15,35.9-24.5,57.4-28.6c3.5,0.4,6.8-0.4,10.1-1.6c1.1-0.1,2.3-0.1,3.4-0.2c9.5,0,19,0,28.6,0c2.2,0.1,4.5,0.1,6.7,0.2
			c3.9,0.5,7.9,1.1,11.8,1.6c2.8,0.6,5.7,1.3,8.5,1.9c1.6,0.5,3.3,1.1,4.9,1.6c0.5,0.1,1.1,0.1,1.7,0.2c1.5,1.1,3.1,2,5.1,1.6
			c5.1,1.8,10.2,3.6,15.3,5.5l-0.1-0.1c3.2,4.1,6.6,7.9,11.9,9l-0.1-0.1c-0.5,1.7,0.4,2,1.8,1.9l-0.1-0.1c-0.2,1.5,0.2,2.3,1.8,1.8
			l-0.1-0.1c-0.3,1.5,0.3,2.1,1.7,1.8l-0.1-0.1c0.2,0.6,0.5,1.3,0.7,1.9c8.7,9.6,17.5,19.4,21.8,32.1c7.9,23.4,17.1,45.8,21.1,71.1
			c7,44.3,7.1,86.1-15.3,125.7c-2.1,3.6-3.1,8.1-1.7,12c3.4,9.5,5.2,20,13.6,26.6c2.7,3,5.7,5.7,7.9,9.1
			c18.9,29.1,79.1,105.7,79,106c-0.5,1.2,39.1,56,40.4,57.8C522.9,985.5,526.4,1230.5,517.9,1260.4z M297.5,837.9
			c-2.4,2-4.9,4-7.3,6c-25.9,17.7-53.4,31.5-82.4,42.5c-8.5,3.2-17.2,6.3-23.8,13.5c19.9-10.1,41.3-16.1,61.1-26.2
			c16-8.2,32.1-16.4,46.3-28c3-1.5,5.7-3.5,7.8-6.3c1.2-1.2,4.1-2.4,2.1-4.2C299.6,833.5,298.5,836.4,297.5,837.9z M164.9,659.8
			c-0.7-8-1.5-16.1-2.2-24.1c-2.4,9.6-1.3,18.7,0.7,27.8c0.8,5,1.4,10.1,4.5,15.5C168.2,671.7,166.9,665.7,164.9,659.8z
			 M346.7,620.9c0-0.6,0-1.2,0-1.8c-10.7-21.7-26.7-38.1-45.5-51.8l0.1,0.1c-13.1-15.4-18.4-16.1-33.4-4.1
			c-11.3,9-21.4,19.4-30.5,30.8c-1.2,1.8-2.4,3.5-3.7,5.3c-30.7,32.1-61.6,64-59.8,116.8c4.4-9.9,2.4-19.8,6.2-28.9
			c3.6,8.1,1.7,17.1,7.2,23.4c0.6,0.7,1.2,1.3,1.8,2l0-0.3c-0.3,0.8-0.6,1.6-0.9,2.3c-0.8,2.1,0,4,0.8,5.9
			c13.1,31.5,46,58.1,85,50.9c13.6-2.5,27.4-5.2,37.3-17.1l-0.1,0.1c18.2-17.3,28.7-39.2,33.7-64.3c1.5-4.6,3.6-9.1,3.4-14.2
			c1.9-3.1,1.9-6.7,2-10.1c0.2-7,0.1-14,0.2-21c0.1-3.3,0-7,5-4.8c-1.7,2.5-1.5,5-0.9,8c1.4,8.1,3.8,16,4,24.3
			c0.1,3.5-0.5,7.5,3.5,11.3c0-15.7-2.9-29.7-6.6-43.6c-3.8-6-1.9-14.9-8.8-19.4L346.7,620.9z M129.4,989.5
			c-6.3,28.1-4.4,57.1-8.4,85.4c-0.9,6.4-1.2,13-1.2,19.5c-0.2,18.6-0.1,37.3-0.1,55.9c2.9-51.3,4.4-102.6,11.1-153.6
			c2.1-20.9,9.7-40.2,16.7-59.6C138.5,953.5,131.1,970.5,129.4,989.5z M237.3,823.2c1.3-0.3,1.3-0.6,0.6-1.2
			c-10.8-9.5-22.9-17.5-30.9-30.2C212.7,807.3,224.5,816,237.3,823.2z M302.4,834.2c9.9-8.9,16.2-19.8,16.5-33.9
			C315.1,812.5,310,824,302.4,834.2z"/>
		<path class="st265" d="M233.7,599.4c1.2-1.8,2.4-3.5,3.7-5.3c4.9,0.7,6.6-3.8,9.2-6.5c8.9-9.4,18-18.4,28.4-25.9
			c6.3-4.6,12-5.1,18,0.8c2.3,2.2,4,6.4,8.4,4.9l-0.1-0.1c-1.9,2.8,0.9,3.4,2.1,4.4c16.1,13.6,30.6,28.7,41.4,47.5
			c0.4,0.9,0.3,2.7,2.1,1.7l-0.1-0.1c-1.1,3.6,2.9,6.2,1.8,9.8c-4.5,14.9,2.7,30.4-1.9,45.3c-2,3.3-2.3,7.1-3.1,10.8
			c-5.2,24.5-15.4,46-31.9,64.2c-0.7,0.8-2.2,2.2-0.3,3.6l0.1-0.1c-2.3-2.4-3.4,0.6-4.6,1.5c-18.7,13.2-39.8,16.3-60.9,11.7
			c-25.2-5.4-42.7-22.9-53.9-47.3c-1-2.1-1.1-4.7-3.6-5.6c0.3-0.8,0.6-1.6,0.9-2.3l0,0.3c-0.6-0.7-1.2-1.3-1.8-2
			c1-7.2-1.9-13.7-3.3-20.4c-2.1-10.4-1.4-19.8,4.1-29.3c9.7-16.8,21.9-31.2,34.1-45.8C226.3,610.2,232.2,606.6,233.7,599.4z
			 M259.8,718c2.8,7.2,8,9.6,15.1,8.7c6.7-0.9,13-2.1,15.3-11.3C276.3,727.2,270.2,726.3,259.8,718z"/>
	</g>
</g>
</svg>
